<?xml version="1.0" encoding="UTF-8" standalone="no"?>
<!DOCTYPE svg PUBLIC "-//W3C//DTD SVG 1.1//EN"
 "http://www.w3.org/Graphics/SVG/1.1/DTD/svg11.dtd">
<!-- Generated by graphviz version 2.26.3 (20100126.1600)
 -->
<!-- Title: controllers_diagram Pages: 1 -->
<svg width="2358pt" height="1412pt"
 viewBox="0.00 0.00 2357.65 1411.50" xmlns="http://www.w3.org/2000/svg" xmlns:xlink="http://www.w3.org/1999/xlink">
<g id="graph1" class="graph" transform="scale(1 1) rotate(0) translate(4 1407.5)">
<title>controllers_diagram</title>
<polygon fill="white" stroke="white" points="-4,5 -4,-1407.5 2354.65,-1407.5 2354.65,5 -4,5"/>
<!-- _diagram_info -->
<g id="node1" class="node"><title>_diagram_info</title>
<text text-anchor="start" x="1617" y="-78.3" font-family="Times Roman,serif" font-size="13.00">Controllers diagram</text>
<text text-anchor="start" x="1617" y="-61.3" font-family="Times Roman,serif" font-size="13.00">Date: Dec 13 2013 &#45; 01:37</text>
<text text-anchor="start" x="1617" y="-44.3" font-family="Times Roman,serif" font-size="13.00">Migration version: 104</text>
<text text-anchor="start" x="1617" y="-27.3" font-family="Times Roman,serif" font-size="13.00">Generated by RailRoady 1.1.1</text>
<text text-anchor="start" x="1617" y="-10.3" font-family="Times Roman,serif" font-size="13.00">http://railroady.prestonlee.com</text>
</g>
<!-- GroupingController -->
<g id="node2" class="node"><title>GroupingController</title>
<ellipse fill="none" stroke="black" cx="455.629" cy="-965.034" rx="104.86" ry="18.3848"/>
<text text-anchor="middle" x="455.629" y="-961.434" font-family="Times Roman,serif" font-size="14.00">GroupingController</text>
</g>
<!-- TagsController -->
<g id="node3" class="node"><title>TagsController</title>
<ellipse fill="none" stroke="black" cx="91.6751" cy="-761.093" rx="82.0244" ry="18.3848"/>
<text text-anchor="middle" x="91.6751" y="-757.493" font-family="Times Roman,serif" font-size="14.00">TagsController</text>
</g>
<!-- GroupingController&#45;&gt;TagsController -->
<g id="edge4" class="edge"><title>GroupingController&#45;&gt;TagsController</title>
<path fill="none" stroke="black" d="M423.967,-947.293C354.789,-908.529 190.887,-816.686 122.49,-778.36"/>
</g>
<!-- CategoriesController -->
<g id="node32" class="node"><title>CategoriesController</title>
<ellipse fill="none" stroke="black" cx="113.5" cy="-1282.72" rx="111.93" ry="18.3848"/>
<text text-anchor="middle" x="113.5" y="-1279.12" font-family="Times Roman,serif" font-size="14.00">CategoriesController</text>
</g>
<!-- GroupingController&#45;&gt;CategoriesController -->
<g id="edge60" class="edge"><title>GroupingController&#45;&gt;CategoriesController</title>
<path fill="none" stroke="black" d="M435.756,-983.487C375.287,-1039.64 193.97,-1208 133.428,-1264.21"/>
</g>
<!-- TrackbacksController -->
<g id="node4" class="node"><title>TrackbacksController</title>
<ellipse fill="none" stroke="black" cx="2099.43" cy="-158.322" rx="113.137" ry="18.3848"/>
<text text-anchor="middle" x="2099.43" y="-154.722" font-family="Times Roman,serif" font-size="14.00">TrackbacksController</text>
</g>
<!-- BackendController -->
<g id="node5" class="node"><title>BackendController</title>
<ellipse fill="none" stroke="black" cx="710.227" cy="-761.58" rx="101.116" ry="18.3848"/>
<text text-anchor="middle" x="710.227" y="-757.98" font-family="Times Roman,serif" font-size="14.00">BackendController</text>
</g>
<!-- XmlController -->
<g id="node6" class="node"><title>XmlController</title>
<ellipse fill="none" stroke="black" cx="1452.34" cy="-477.242" rx="79.9031" ry="18.3848"/>
<text text-anchor="middle" x="1452.34" y="-473.642" font-family="Times Roman,serif" font-size="14.00">XmlController</text>
</g>
<!-- ContentController -->
<g id="node7" class="node"><title>ContentController</title>
<ellipse fill="none" stroke="black" cx="784.58" cy="-473.619" rx="99.9096" ry="18.3848"/>
<text text-anchor="middle" x="784.58" y="-470.019" font-family="Times Roman,serif" font-size="14.00">ContentController</text>
</g>
<!-- ContentController&#45;&gt;GroupingController -->
<g id="edge2" class="edge"><title>ContentController&#45;&gt;GroupingController</title>
<path fill="none" stroke="black" d="M772.285,-491.986C720.44,-569.437 519.948,-868.948 467.985,-946.575"/>
</g>
<!-- ContentController&#45;&gt;BackendController -->
<g id="edge8" class="edge"><title>ContentController&#45;&gt;BackendController</title>
<path fill="none" stroke="black" d="M779.702,-492.513C766.197,-544.815 728.436,-691.056 715.026,-742.991"/>
</g>
<!-- ThemeController -->
<g id="node12" class="node"><title>ThemeController</title>
<ellipse fill="none" stroke="black" cx="125.363" cy="-248.256" rx="94.0452" ry="18.3848"/>
<text text-anchor="middle" x="125.363" y="-244.656" font-family="Times Roman,serif" font-size="14.00">ThemeController</text>
</g>
<!-- ContentController&#45;&gt;ThemeController -->
<g id="edge20" class="edge"><title>ContentController&#45;&gt;ThemeController</title>
<path fill="none" stroke="black" d="M736.906,-457.321C615.056,-415.665 293.321,-305.675 172.292,-264.299"/>
</g>
<!-- AuthorsController -->
<g id="node31" class="node"><title>AuthorsController</title>
<ellipse fill="none" stroke="black" cx="583.656" cy="-176.891" rx="98.9949" ry="18.3848"/>
<text text-anchor="middle" x="583.656" y="-173.291" font-family="Times Roman,serif" font-size="14.00">AuthorsController</text>
</g>
<!-- ContentController&#45;&gt;AuthorsController -->
<g id="edge58" class="edge"><title>ContentController&#45;&gt;AuthorsController</title>
<path fill="none" stroke="black" d="M772.012,-455.057C735.928,-401.769 632.297,-248.725 596.22,-195.446"/>
</g>
<!-- ArticlesController -->
<g id="node35" class="node"><title>ArticlesController</title>
<ellipse fill="none" stroke="black" cx="462.568" cy="-557.466" rx="96.8736" ry="18.3848"/>
<text text-anchor="middle" x="462.568" y="-553.866" font-family="Times Roman,serif" font-size="14.00">ArticlesController</text>
</g>
<!-- ContentController&#45;&gt;ArticlesController -->
<g id="edge66" class="edge"><title>ContentController&#45;&gt;ArticlesController</title>
<path fill="none" stroke="black" d="M726.639,-488.706C668.152,-503.935 578.364,-527.315 520.044,-542.501"/>
</g>
<!-- SetupController -->
<g id="node8" class="node"><title>SetupController</title>
<ellipse fill="none" stroke="black" cx="971.644" cy="-789.553" rx="89.0955" ry="18.3848"/>
<text text-anchor="middle" x="971.644" y="-785.953" font-family="Times Roman,serif" font-size="14.00">SetupController</text>
</g>
<!-- ApplicationController -->
<g id="node9" class="node"><title>ApplicationController</title>
<ellipse fill="none" stroke="black" cx="1012.01" cy="-537.418" rx="113.844" ry="18.3848"/>
<text text-anchor="middle" x="1012.01" y="-533.818" font-family="Times Roman,serif" font-size="14.00">ApplicationController</text>
</g>
<!-- ApplicationController&#45;&gt;XmlController -->
<g id="edge10" class="edge"><title>ApplicationController&#45;&gt;XmlController</title>
<path fill="none" stroke="black" d="M1099.27,-525.493C1182.63,-514.1 1306.62,-497.155 1383.32,-486.674"/>
</g>
<!-- ApplicationController&#45;&gt;ContentController -->
<g id="edge12" class="edge"><title>ApplicationController&#45;&gt;ContentController</title>
<path fill="none" stroke="black" d="M954.916,-521.401C919.652,-511.509 874.635,-498.881 839.738,-489.092"/>
</g>
<!-- ApplicationController&#45;&gt;SetupController -->
<g id="edge14" class="edge"><title>ApplicationController&#45;&gt;SetupController</title>
<path fill="none" stroke="black" d="M1009.05,-555.958C1001.58,-602.586 982.087,-724.329 974.617,-770.986"/>
</g>
<!-- TextfilterController -->
<g id="node10" class="node"><title>TextfilterController</title>
<ellipse fill="none" stroke="black" cx="955.268" cy="-172.287" rx="103.945" ry="18.3848"/>
<text text-anchor="middle" x="955.268" y="-168.687" font-family="Times Roman,serif" font-size="14.00">TextfilterController</text>
</g>
<!-- ApplicationController&#45;&gt;TextfilterController -->
<g id="edge16" class="edge"><title>ApplicationController&#45;&gt;TextfilterController</title>
<path fill="none" stroke="black" d="M1009.12,-518.809C999.387,-456.174 967.88,-253.438 958.154,-190.859"/>
</g>
<!-- AccountsController -->
<g id="node11" class="node"><title>AccountsController</title>
<ellipse fill="none" stroke="black" cx="1199.75" cy="-427.924" rx="104.151" ry="18.3848"/>
<text text-anchor="middle" x="1199.75" y="-424.324" font-family="Times Roman,serif" font-size="14.00">AccountsController</text>
</g>
<!-- ApplicationController&#45;&gt;AccountsController -->
<g id="edge18" class="edge"><title>ApplicationController&#45;&gt;AccountsController</title>
<path fill="none" stroke="black" d="M1042.59,-519.582C1077.51,-499.221 1134.28,-466.11 1169.18,-445.752"/>
</g>
<!-- Admin::BaseController -->
<g id="node16" class="node"><title>Admin::BaseController</title>
<ellipse fill="none" stroke="black" cx="1287.06" cy="-886.413" rx="120.915" ry="18.3848"/>
<text text-anchor="middle" x="1287.06" y="-882.813" font-family="Times Roman,serif" font-size="14.00">Admin::BaseController</text>
</g>
<!-- ApplicationController&#45;&gt;Admin::BaseController -->
<g id="edge28" class="edge"><title>ApplicationController&#45;&gt;Admin::BaseController</title>
<path fill="none" stroke="black" d="M1021.03,-555.973C1035.7,-585.39 1066.5,-643.985 1100,-688.766 1153.76,-760.647 1230.76,-834.702 1266.89,-868.109"/>
</g>
<!-- FeedbackController -->
<g id="node33" class="node"><title>FeedbackController</title>
<ellipse fill="none" stroke="black" cx="1644.29" cy="-180.294" rx="104.86" ry="18.3848"/>
<text text-anchor="middle" x="1644.29" y="-176.694" font-family="Times Roman,serif" font-size="14.00">FeedbackController</text>
</g>
<!-- ApplicationController&#45;&gt;FeedbackController -->
<g id="edge62" class="edge"><title>ApplicationController&#45;&gt;FeedbackController</title>
<path fill="none" stroke="black" d="M1061.69,-520.627C1114.69,-502.417 1200.92,-471.953 1273.98,-442.221 1424.96,-380.775 1573.9,-247.444 1625.38,-198.655"/>
</g>
<!-- Admin::UsersController -->
<g id="node13" class="node"><title>Admin::UsersController</title>
<ellipse fill="none" stroke="black" cx="778.592" cy="-1048.5" rx="123.951" ry="18.3848"/>
<text text-anchor="middle" x="778.592" y="-1044.9" font-family="Times Roman,serif" font-size="14.00">Admin::UsersController</text>
</g>
<!-- Admin::ResourcesController -->
<g id="node14" class="node"><title>Admin::ResourcesController</title>
<ellipse fill="none" stroke="black" cx="2130.79" cy="-747.148" rx="145.872" ry="18.3848"/>
<text text-anchor="middle" x="2130.79" y="-743.548" font-family="Times Roman,serif" font-size="14.00">Admin::ResourcesController</text>
</g>
<!-- Admin::TagsController -->
<g id="node15" class="node"><title>Admin::TagsController</title>
<ellipse fill="none" stroke="black" cx="2180.26" cy="-1024.45" rx="118.794" ry="18.3848"/>
<text text-anchor="middle" x="2180.26" y="-1020.85" font-family="Times Roman,serif" font-size="14.00">Admin::TagsController</text>
</g>
<!-- Admin::BaseController&#45;&gt;Admin::UsersController -->
<g id="edge22" class="edge"><title>Admin::BaseController&#45;&gt;Admin::UsersController</title>
<path fill="none" stroke="black" d="M1234.56,-903.149C1137,-934.25 928.819,-1000.61 831.187,-1031.74"/>
</g>
<!-- Admin::BaseController&#45;&gt;Admin::ResourcesController -->
<g id="edge24" class="edge"><title>Admin::BaseController&#45;&gt;Admin::ResourcesController</title>
<path fill="none" stroke="black" d="M1369.49,-872.806C1528.72,-846.524 1877.33,-788.983 2041.69,-761.855"/>
</g>
<!-- Admin::BaseController&#45;&gt;Admin::TagsController -->
<g id="edge26" class="edge"><title>Admin::BaseController&#45;&gt;Admin::TagsController</title>
<path fill="none" stroke="black" d="M1372.3,-899.586C1543.12,-925.984 1925.54,-985.083 2095.76,-1011.39"/>
</g>
<!-- Admin::CacheController -->
<g id="node17" class="node"><title>Admin::CacheController</title>
<ellipse fill="none" stroke="black" cx="1777.89" cy="-908.361" rx="126.78" ry="18.3848"/>
<text text-anchor="middle" x="1777.89" y="-904.761" font-family="Times Roman,serif" font-size="14.00">Admin::CacheController</text>
</g>
<!-- Admin::BaseController&#45;&gt;Admin::CacheController -->
<g id="edge30" class="edge"><title>Admin::BaseController&#45;&gt;Admin::CacheController</title>
<path fill="none" stroke="black" d="M1403.38,-891.614C1479.64,-895.024 1579.14,-899.474 1656.42,-902.929"/>
</g>
<!-- Admin::PagesController -->
<g id="node18" class="node"><title>Admin::PagesController</title>
<ellipse fill="none" stroke="black" cx="2222.65" cy="-464.417" rx="125.865" ry="18.3848"/>
<text text-anchor="middle" x="2222.65" y="-460.817" font-family="Times Roman,serif" font-size="14.00">Admin::PagesController</text>
</g>
<!-- Admin::BaseController&#45;&gt;Admin::PagesController -->
<g id="edge32" class="edge"><title>Admin::BaseController&#45;&gt;Admin::PagesController</title>
<path fill="none" stroke="black" d="M1334.22,-869.346C1404.95,-843.435 1542.38,-791.858 1656.52,-741.651 1861.88,-651.318 2101.37,-527.882 2188.64,-482.286"/>
</g>
<!-- Admin::ContentController -->
<g id="node19" class="node"><title>Admin::ContentController</title>
<ellipse fill="none" stroke="black" cx="1144.46" cy="-1379.73" rx="137.179" ry="18.3848"/>
<text text-anchor="middle" x="1144.46" y="-1376.13" font-family="Times Roman,serif" font-size="14.00">Admin::ContentController</text>
</g>
<!-- Admin::BaseController&#45;&gt;Admin::ContentController -->
<g id="edge34" class="edge"><title>Admin::BaseController&#45;&gt;Admin::ContentController</title>
<path fill="none" stroke="black" d="M1274.13,-904.832C1254.29,-933.035 1215.04,-988.553 1180.95,-1035.14 1153.7,-1072.37 1131.07,-1073.74 1118.65,-1118.17 1093.94,-1206.5 1123.94,-1317.37 1137.97,-1360.93"/>
</g>
<!-- Admin::SettingsController -->
<g id="node20" class="node"><title>Admin::SettingsController</title>
<ellipse fill="none" stroke="black" cx="541.577" cy="-1355.42" rx="137.886" ry="18.3848"/>
<text text-anchor="middle" x="541.577" y="-1351.82" font-family="Times Roman,serif" font-size="14.00">Admin::SettingsController</text>
</g>
<!-- Admin::BaseController&#45;&gt;Admin::SettingsController -->
<g id="edge36" class="edge"><title>Admin::BaseController&#45;&gt;Admin::SettingsController</title>
<path fill="none" stroke="black" d="M1202.66,-899.783C1118.43,-917.225 990.259,-955.46 909.749,-1034.99 905.096,-1039.59 908.032,-1043.32 904.19,-1048.62 807.053,-1182.41 639.642,-1294.83 571.62,-1337.28"/>
</g>
<!-- Admin::ThemesController -->
<g id="node21" class="node"><title>Admin::ThemesController</title>
<ellipse fill="none" stroke="black" cx="872.003" cy="-1364.22" rx="135.765" ry="18.3848"/>
<text text-anchor="middle" x="872.003" y="-1360.62" font-family="Times Roman,serif" font-size="14.00">Admin::ThemesController</text>
</g>
<!-- Admin::BaseController&#45;&gt;Admin::ThemesController -->
<g id="edge38" class="edge"><title>Admin::BaseController&#45;&gt;Admin::ThemesController</title>
<path fill="none" stroke="black" d="M1275.07,-904.847C1256.16,-933.541 1217.75,-990.254 1180.95,-1035.14 1078.59,-1159.97 940.917,-1296.99 891.041,-1345.75"/>
</g>
<!-- Admin::SeoController -->
<g id="node22" class="node"><title>Admin::SeoController</title>
<ellipse fill="none" stroke="black" cx="1217.59" cy="-688.947" rx="115.966" ry="18.3848"/>
<text text-anchor="middle" x="1217.59" y="-685.347" font-family="Times Roman,serif" font-size="14.00">Admin::SeoController</text>
</g>
<!-- Admin::BaseController&#45;&gt;Admin::SeoController -->
<g id="edge40" class="edge"><title>Admin::BaseController&#45;&gt;Admin::SeoController</title>
<path fill="none" stroke="black" d="M1280.52,-867.836C1267.28,-830.201 1237.43,-745.333 1224.16,-707.619"/>
</g>
<!-- Admin::SidebarController -->
<g id="node23" class="node"><title>Admin::SidebarController</title>
<ellipse fill="none" stroke="black" cx="1045.35" cy="-1035.07" rx="133.851" ry="18.3848"/>
<text text-anchor="middle" x="1045.35" y="-1031.47" font-family="Times Roman,serif" font-size="14.00">Admin::SidebarController</text>
</g>
<!-- Admin::BaseController&#45;&gt;Admin::SidebarController -->
<g id="edge42" class="edge"><title>Admin::BaseController&#45;&gt;Admin::SidebarController</title>
<path fill="none" stroke="black" d="M1257.42,-904.641C1210.9,-933.249 1121.28,-988.366 1074.85,-1016.92"/>
</g>
<!-- Admin::TextfiltersController -->
<g id="node24" class="node"><title>Admin::TextfiltersController</title>
<ellipse fill="none" stroke="black" cx="1524.9" cy="-1048.97" rx="145.163" ry="18.3848"/>
<text text-anchor="middle" x="1524.9" y="-1045.37" font-family="Times Roman,serif" font-size="14.00">Admin::TextfiltersController</text>
</g>
<!-- Admin::BaseController&#45;&gt;Admin::TextfiltersController -->
<g id="edge44" class="edge"><title>Admin::BaseController&#45;&gt;Admin::TextfiltersController</title>
<path fill="none" stroke="black" d="M1313.88,-904.744C1359.68,-936.048 1452.45,-999.449 1498.18,-1030.71"/>
</g>
<!-- Admin::PostTypesController -->
<g id="node25" class="node"><title>Admin::PostTypesController</title>
<ellipse fill="none" stroke="black" cx="1754.83" cy="-1323.51" rx="145.163" ry="18.3848"/>
<text text-anchor="middle" x="1754.83" y="-1319.91" font-family="Times Roman,serif" font-size="14.00">Admin::PostTypesController</text>
</g>
<!-- Admin::BaseController&#45;&gt;Admin::PostTypesController -->
<g id="edge46" class="edge"><title>Admin::BaseController&#45;&gt;Admin::PostTypesController</title>
<path fill="none" stroke="black" d="M1294.4,-905.092C1307.64,-937.116 1337.91,-1003.44 1378.3,-1048.92 1484.13,-1168.1 1650.05,-1266.46 1720.91,-1305.46"/>
</g>
<!-- Admin::CategoriesController -->
<g id="node26" class="node"><title>Admin::CategoriesController</title>
<ellipse fill="none" stroke="black" cx="1441.41" cy="-1384" rx="149.907" ry="18.3848"/>
<text text-anchor="middle" x="1441.41" y="-1380.4" font-family="Times Roman,serif" font-size="14.00">Admin::CategoriesController</text>
</g>
<!-- Admin::BaseController&#45;&gt;Admin::CategoriesController -->
<g id="edge48" class="edge"><title>Admin::BaseController&#45;&gt;Admin::CategoriesController</title>
<path fill="none" stroke="black" d="M1297.17,-905.104C1313.69,-935.509 1347.73,-997.459 1378.3,-1048.92 1396.9,-1080.22 1410.5,-1083.71 1421.84,-1118.3 1450.97,-1207.08 1446.31,-1321.18 1443.05,-1365.37"/>
</g>
<!-- Admin::FeedbackController -->
<g id="node27" class="node"><title>Admin::FeedbackController</title>
<ellipse fill="none" stroke="black" cx="1775.73" cy="-530.141" rx="142.836" ry="18.3848"/>
<text text-anchor="middle" x="1775.73" y="-526.541" font-family="Times Roman,serif" font-size="14.00">Admin::FeedbackController</text>
</g>
<!-- Admin::BaseController&#45;&gt;Admin::FeedbackController -->
<g id="edge50" class="edge"><title>Admin::BaseController&#45;&gt;Admin::FeedbackController</title>
<path fill="none" stroke="black" d="M1293.63,-867.696C1304.97,-837.7 1330.76,-778.466 1369.33,-741.275 1473.94,-640.427 1636.3,-575.968 1720.65,-547.336"/>
</g>
<!-- Admin::ProfilesController -->
<g id="node28" class="node"><title>Admin::ProfilesController</title>
<ellipse fill="none" stroke="black" cx="2164.61" cy="-1363.75" rx="132.936" ry="18.3848"/>
<text text-anchor="middle" x="2164.61" y="-1360.15" font-family="Times Roman,serif" font-size="14.00">Admin::ProfilesController</text>
</g>
<!-- Admin::BaseController&#45;&gt;Admin::ProfilesController -->
<g id="edge52" class="edge"><title>Admin::BaseController&#45;&gt;Admin::ProfilesController</title>
<path fill="none" stroke="black" d="M1334.38,-903.482C1408.11,-930.726 1554.12,-987.296 1671.5,-1049.02 1858.92,-1147.57 2068.15,-1294.36 2139.33,-1345.44"/>
</g>
<!-- Admin::DashboardController -->
<g id="node29" class="node"><title>Admin::DashboardController</title>
<ellipse fill="none" stroke="black" cx="1270.24" cy="-1118.23" rx="149.907" ry="18.3848"/>
<text text-anchor="middle" x="1270.24" y="-1114.63" font-family="Times Roman,serif" font-size="14.00">Admin::DashboardController</text>
</g>
<!-- Admin::BaseController&#45;&gt;Admin::DashboardController -->
<g id="edge54" class="edge"><title>Admin::BaseController&#45;&gt;Admin::DashboardController</title>
<path fill="none" stroke="black" d="M1285.71,-904.992C1282.56,-948.399 1274.75,-1056.07 1271.6,-1099.57"/>
</g>
<!-- Admin::RedirectsController -->
<g id="node30" class="node"><title>Admin::RedirectsController</title>
<ellipse fill="none" stroke="black" cx="1512.93" cy="-741.463" rx="142.128" ry="18.3848"/>
<text text-anchor="middle" x="1512.93" y="-737.863" font-family="Times Roman,serif" font-size="14.00">Admin::RedirectsController</text>
</g>
<!-- Admin::BaseController&#45;&gt;Admin::RedirectsController -->
<g id="edge56" class="edge"><title>Admin::BaseController&#45;&gt;Admin::RedirectsController</title>
<path fill="none" stroke="black" d="M1315.21,-868.348C1358.49,-840.572 1440.93,-787.668 1484.42,-759.755"/>
</g>
<!-- FeedbackController&#45;&gt;TrackbacksController -->
<g id="edge6" class="edge"><title>FeedbackController&#45;&gt;TrackbacksController</title>
<path fill="none" stroke="black" d="M1745.59,-175.404C1818.41,-171.888 1916.47,-167.154 1990.89,-163.562"/>
</g>
<!-- CommentsController -->
<g id="node34" class="node"><title>CommentsController</title>
<ellipse fill="none" stroke="black" cx="1293.56" cy="-153.5" rx="111.93" ry="18.3848"/>
<text text-anchor="middle" x="1293.56" y="-149.9" font-family="Times Roman,serif" font-size="14.00">CommentsController</text>
</g>
<!-- FeedbackController&#45;&gt;CommentsController -->
<g id="edge64" class="edge"><title>FeedbackController&#45;&gt;CommentsController</title>
<path fill="none" stroke="black" d="M1547.53,-172.901C1500.18,-169.285 1443.2,-164.931 1395.22,-161.266"/>
</g>
</g>
</svg>
