<?xml version="1.0" encoding="UTF-8" standalone="no"?>
<!DOCTYPE svg PUBLIC "-//W3C//DTD SVG 1.1//EN"
 "http://www.w3.org/Graphics/SVG/1.1/DTD/svg11.dtd">
<!-- Generated by graphviz version 2.26.3 (20100126.1600)
 -->
<!-- Title: models_diagram Pages: 1 -->
<svg width="2503pt" height="590pt"
 viewBox="0.00 0.00 2503.00 590.00" xmlns="http://www.w3.org/2000/svg" xmlns:xlink="http://www.w3.org/1999/xlink">
<g id="graph1" class="graph" transform="scale(1 1) rotate(0) translate(4 586)">
<title>models_diagram</title>
<polygon fill="white" stroke="white" points="-4,5 -4,-586 2500,-586 2500,5 -4,5"/>
<!-- _diagram_info -->
<g id="node1" class="node"><title>_diagram_info</title>
<text text-anchor="start" x="356" y="-565.8" font-family="Times Roman,serif" font-size="13.00">Models diagram</text>
<text text-anchor="start" x="356" y="-548.8" font-family="Times Roman,serif" font-size="13.00">Date: Dec 13 2013 &#45; 01:36</text>
<text text-anchor="start" x="356" y="-531.8" font-family="Times Roman,serif" font-size="13.00">Migration version: 104</text>
<text text-anchor="start" x="356" y="-514.8" font-family="Times Roman,serif" font-size="13.00">Generated by RailRoady 1.1.1</text>
<text text-anchor="start" x="356" y="-497.8" font-family="Times Roman,serif" font-size="13.00">http://railroady.prestonlee.com</text>
</g>
<!-- Right -->
<g id="node2" class="node"><title>Right</title>
<ellipse fill="none" stroke="black" cx="37" cy="-431" rx="36.977" ry="18.3848"/>
<text text-anchor="middle" x="37" y="-427.4" font-family="Times Roman,serif" font-size="14.00">Right</text>
</g>
<!-- Profile -->
<g id="node4" class="node"><title>Profile</title>
<ellipse fill="none" stroke="black" cx="62" cy="-355" rx="41.9273" ry="18.3848"/>
<text text-anchor="middle" x="62" y="-351.4" font-family="Times Roman,serif" font-size="14.00">Profile</text>
</g>
<!-- Right&#45;&gt;Profile -->
<g id="edge2" class="edge"><title>Right&#45;&gt;Profile</title>
<path fill="none" stroke="#1c21e2" d="M46.2602,-402.849C48.376,-396.417 50.6247,-389.581 52.7404,-383.149"/>
<polygon fill="#1c21e2" stroke="#1c21e2" points="46.1766,-403.103 38.7771,-411.196 44.6142,-407.853 43.0518,-412.603 43.0518,-412.603 43.0518,-412.603 44.6142,-407.853 47.3265,-414.009 46.1766,-403.103 46.1766,-403.103"/>
<polygon fill="#1c21e2" stroke="#1c21e2" points="52.7925,-382.991 60.1919,-374.898 54.3549,-378.241 55.9173,-373.491 55.9173,-373.491 55.9173,-373.491 54.3549,-378.241 51.6426,-372.085 52.7925,-382.991 52.7925,-382.991"/>
</g>
<!-- ConfigManager -->
<g id="node3" class="node"><title>ConfigManager</title>
<polygon fill="none" stroke="black" stroke-dasharray="1,5" points="978,-553 858,-553 858,-517 978,-517 978,-553"/>
<text text-anchor="middle" x="918" y="-531.4" font-family="Times Roman,serif" font-size="14.00">ConfigManager</text>
</g>
<!-- Trackback -->
<g id="node5" class="node"><title>Trackback</title>
<ellipse fill="none" stroke="black" cx="618" cy="-19" rx="58.8978" ry="18.3848"/>
<text text-anchor="middle" x="618" y="-15.4" font-family="Times Roman,serif" font-size="14.00">Trackback</text>
</g>
<!-- Feedback::States -->
<g id="node6" class="node"><title>Feedback::States</title>
<polygon fill="none" stroke="black" stroke-dasharray="1,5" points="1240,-553 1106,-553 1106,-517 1240,-517 1240,-553"/>
<text text-anchor="middle" x="1173" y="-531.4" font-family="Times Roman,serif" font-size="14.00">Feedback::States</text>
</g>
<!-- Ping -->
<g id="node7" class="node"><title>Ping</title>
<ellipse fill="none" stroke="black" cx="140" cy="-95" rx="33.234" ry="18.3848"/>
<text text-anchor="middle" x="140" y="-91.4" font-family="Times Roman,serif" font-size="14.00">Ping</text>
</g>
<!-- Sidebar -->
<g id="node8" class="node"><title>Sidebar</title>
<ellipse fill="none" stroke="black" cx="216" cy="-431" rx="48.0833" ry="18.3848"/>
<text text-anchor="middle" x="216" y="-427.4" font-family="Times Roman,serif" font-size="14.00">Sidebar</text>
</g>
<!-- Comment -->
<g id="node9" class="node"><title>Comment</title>
<ellipse fill="none" stroke="black" cx="804" cy="-19" rx="58.1882" ry="18.3848"/>
<text text-anchor="middle" x="804" y="-15.4" font-family="Times Roman,serif" font-size="14.00">Comment</text>
</g>
<!-- WebNotifier -->
<g id="node10" class="node"><title>WebNotifier</title>
<polygon fill="none" stroke="black" points="1471,-449 1373,-449 1373,-413 1471,-413 1471,-449"/>
<text text-anchor="middle" x="1422" y="-427.4" font-family="Times Roman,serif" font-size="14.00">WebNotifier</text>
</g>
<!-- Redirect -->
<g id="node11" class="node"><title>Redirect</title>
<ellipse fill="none" stroke="black" cx="680" cy="-431" rx="51.1176" ry="18.3848"/>
<text text-anchor="middle" x="680" y="-427.4" font-family="Times Roman,serif" font-size="14.00">Redirect</text>
</g>
<!-- Redirection -->
<g id="node18" class="node"><title>Redirection</title>
<ellipse fill="none" stroke="black" cx="475" cy="-263" rx="65.9683" ry="18.3848"/>
<text text-anchor="middle" x="475" y="-259.4" font-family="Times Roman,serif" font-size="14.00">Redirection</text>
</g>
<!-- Redirect&#45;&gt;Redirection -->
<g id="edge18" class="edge"><title>Redirect&#45;&gt;Redirection</title>
<path fill="none" stroke="#193639" d="M652.924,-408.811C614.36,-377.207 543.9,-319.464 504.201,-286.931"/>
<ellipse fill="none" stroke="#193639" cx="656.122" cy="-411.431" rx="4.00002" ry="4.00002"/>
<polygon fill="#193639" stroke="#193639" points="504.189,-286.921 499.307,-277.102 500.322,-283.752 496.455,-280.582 496.455,-280.582 496.455,-280.582 500.322,-283.752 493.602,-284.063 504.189,-286.921 504.189,-286.921"/>
</g>
<!-- Content -->
<g id="node29" class="node"><title>Content</title>
<ellipse fill="none" stroke="black" cx="706" cy="-355" rx="51.1176" ry="18.3848"/>
<text text-anchor="middle" x="706" y="-351.4" font-family="Times Roman,serif" font-size="14.00">Content</text>
</g>
<!-- Redirect&#45;&gt;Content -->
<g id="edge20" class="edge"><title>Redirect&#45;&gt;Content</title>
<path fill="none" stroke="#e045e0" d="M689.631,-402.849C691.831,-396.417 694.17,-389.581 696.37,-383.149"/>
<polygon fill="#e045e0" stroke="#e045e0" points="689.531,-403.141 682.036,-411.146 687.912,-407.872 686.294,-412.603 686.294,-412.603 686.294,-412.603 687.912,-407.872 690.552,-414.059 689.531,-403.141 689.531,-403.141"/>
<polygon fill="#e045e0" stroke="#e045e0" points="696.437,-382.953 703.932,-374.948 698.055,-378.222 699.674,-373.491 699.674,-373.491 699.674,-373.491 698.055,-378.222 695.416,-372.035 696.437,-382.953 696.437,-382.953"/>
</g>
<!-- Categorization -->
<g id="node12" class="node"><title>Categorization</title>
<ellipse fill="none" stroke="black" cx="275" cy="-95" rx="84.1457" ry="18.3848"/>
<text text-anchor="middle" x="275" y="-91.4" font-family="Times Roman,serif" font-size="14.00">Categorization</text>
</g>
<!-- Category -->
<g id="node13" class="node"><title>Category</title>
<ellipse fill="none" stroke="black" cx="262" cy="-263" rx="56.0679" ry="18.3848"/>
<text text-anchor="middle" x="262" y="-259.4" font-family="Times Roman,serif" font-size="14.00">Category</text>
</g>
<!-- Category&#45;&gt;Categorization -->
<g id="edge28" class="edge"><title>Category&#45;&gt;Categorization</title>
<path fill="none" stroke="#ef31d3" d="M264.072,-236.225C266.443,-205.587 270.312,-155.587 272.753,-124.034"/>
<ellipse fill="none" stroke="#ef31d3" cx="263.75" cy="-240.391" rx="4" ry="4"/>
<polygon fill="#ef31d3" stroke="#ef31d3" points="272.781,-123.674 278.039,-114.051 273.167,-118.689 273.553,-113.704 273.553,-113.704 273.553,-113.704 273.167,-118.689 269.066,-113.357 272.781,-123.674 272.781,-123.674"/>
</g>
<!-- Category&#45;&gt;Category -->
<g id="edge26" class="edge"><title>Category&#45;&gt;Category</title>
<path fill="none" stroke="#e49b43" d="M321.921,-269.381C330.351,-268.341 336,-266.215 336,-263 336,-260.078 331.332,-258.054 324.149,-256.93"/>
<ellipse fill="none" stroke="#e49b43" cx="317.856" cy="-269.7" rx="4" ry="4"/>
<polygon fill="#e49b43" stroke="#e49b43" points="323.827,-256.9 314.28,-251.505 318.848,-256.443 313.869,-255.986 313.869,-255.986 313.869,-255.986 318.848,-256.443 313.457,-260.467 323.827,-256.9 323.827,-256.9"/>
<text text-anchor="middle" x="363.5" y="-259.4" font-family="Times Roman,serif" font-size="14.00">children</text>
</g>
<!-- Article -->
<g id="node23" class="node"><title>Article</title>
<ellipse fill="none" stroke="black" cx="685" cy="-187" rx="43.1335" ry="18.3848"/>
<text text-anchor="middle" x="685" y="-183.4" font-family="Times Roman,serif" font-size="14.00">Article</text>
</g>
<!-- Category&#45;&gt;Article -->
<g id="edge30" class="edge"><title>Category&#45;&gt;Article</title>
<path fill="none" stroke="#2eda6a" d="M321.392,-252.329C405.171,-237.277 556.559,-210.077 634.943,-195.994"/>
<polygon fill="#2eda6a" stroke="#2eda6a" points="321.194,-252.365 310.556,-249.704 316.273,-253.249 311.351,-254.133 311.351,-254.133 311.351,-254.133 316.273,-253.249 312.147,-258.562 321.194,-252.365 321.194,-252.365"/>
<polygon fill="#2eda6a" stroke="#2eda6a" points="635.204,-195.947 645.843,-198.607 640.126,-195.063 645.047,-194.178 645.047,-194.178 645.047,-194.178 640.126,-195.063 644.251,-189.749 635.204,-195.947 635.204,-195.947"/>
</g>
<!-- Theme -->
<g id="node14" class="node"><title>Theme</title>
<polygon fill="none" stroke="black" points="1675,-449 1611,-449 1611,-413 1675,-413 1675,-449"/>
<text text-anchor="middle" x="1643" y="-427.4" font-family="Times Roman,serif" font-size="14.00">Theme</text>
</g>
<!-- Page -->
<g id="node15" class="node"><title>Page</title>
<ellipse fill="none" stroke="black" cx="594" cy="-263" rx="34.8574" ry="18.3848"/>
<text text-anchor="middle" x="594" y="-259.4" font-family="Times Roman,serif" font-size="14.00">Page</text>
</g>
<!-- Feedback -->
<g id="node16" class="node"><title>Feedback</title>
<ellipse fill="none" stroke="black" cx="702" cy="-95" rx="56.0679" ry="18.3848"/>
<text text-anchor="middle" x="702" y="-91.4" font-family="Times Roman,serif" font-size="14.00">Feedback</text>
</g>
<!-- Feedback&#45;&gt;Trackback -->
<g id="edge8" class="edge"><title>Feedback&#45;&gt;Trackback</title>
<path fill="none" stroke="black" d="M682.518,-77.373C668.947,-65.0951 650.924,-48.7884 637.377,-36.5314"/>
</g>
<!-- Feedback&#45;&gt;Comment -->
<g id="edge14" class="edge"><title>Feedback&#45;&gt;Comment</title>
<path fill="none" stroke="black" d="M724.891,-77.9441C741.572,-65.5151 764.088,-48.7387 780.833,-36.2619"/>
</g>
<!-- PostType -->
<g id="node17" class="node"><title>PostType</title>
<ellipse fill="none" stroke="black" cx="557" cy="-431" rx="53.9477" ry="18.3848"/>
<text text-anchor="middle" x="557" y="-427.4" font-family="Times Roman,serif" font-size="14.00">PostType</text>
</g>
<!-- NotificationMailer -->
<g id="node19" class="node"><title>NotificationMailer</title>
<polygon fill="none" stroke="black" points="1939,-449 1803,-449 1803,-413 1939,-413 1939,-449"/>
<text text-anchor="middle" x="1871" y="-427.4" font-family="Times Roman,serif" font-size="14.00">NotificationMailer</text>
</g>
<!-- EmailNotifier -->
<g id="node20" class="node"><title>EmailNotifier</title>
<polygon fill="none" stroke="black" points="1593,-449 1489,-449 1489,-413 1593,-413 1593,-449"/>
<text text-anchor="middle" x="1541" y="-427.4" font-family="Times Roman,serif" font-size="14.00">EmailNotifier</text>
</g>
<!-- Article::States -->
<g id="node21" class="node"><title>Article::States</title>
<polygon fill="none" stroke="black" stroke-dasharray="1,5" points="2105,-553 1991,-553 1991,-517 2105,-517 2105,-553"/>
<text text-anchor="middle" x="2048" y="-531.4" font-family="Times Roman,serif" font-size="14.00">Article::States</text>
</g>
<!-- User -->
<g id="node22" class="node"><title>User</title>
<ellipse fill="none" stroke="black" cx="823" cy="-263" rx="33.9411" ry="18.3848"/>
<text text-anchor="middle" x="823" y="-259.4" font-family="Times Roman,serif" font-size="14.00">User</text>
</g>
<!-- User&#45;&gt;Article -->
<g id="edge52" class="edge"><title>User&#45;&gt;Article</title>
<path fill="none" stroke="#a66501" d="M791.77,-245.801C770.623,-234.155 742.635,-218.741 720.619,-206.617"/>
<ellipse fill="none" stroke="#a66501" cx="795.458" cy="-247.832" rx="4.00002" ry="4.00002"/>
<polygon fill="#a66501" stroke="#a66501" points="720.347,-206.466 713.758,-197.701 715.967,-204.054 711.587,-201.642 711.587,-201.642 711.587,-201.642 715.967,-204.054 709.417,-205.584 720.347,-206.466 720.347,-206.466"/>
</g>
<!-- Notification -->
<g id="node24" class="node"><title>Notification</title>
<ellipse fill="none" stroke="black" cx="939" cy="-187" rx="67.1751" ry="18.3848"/>
<text text-anchor="middle" x="939" y="-183.4" font-family="Times Roman,serif" font-size="14.00">Notification</text>
</g>
<!-- User&#45;&gt;Notification -->
<g id="edge48" class="edge"><title>User&#45;&gt;Notification</title>
<path fill="none" stroke="#1f38cd" d="M851.942,-244.038C867.844,-233.62 887.674,-220.627 904.391,-209.675"/>
<ellipse fill="none" stroke="#1f38cd" cx="848.165" cy="-246.513" rx="4.00002" ry="4.00002"/>
<polygon fill="#1f38cd" stroke="#1f38cd" points="904.447,-209.638 915.278,-207.922 908.629,-206.898 912.811,-204.158 912.811,-204.158 912.811,-204.158 908.629,-206.898 910.345,-200.394 904.447,-209.638 904.447,-209.638"/>
</g>
<!-- User&#45;&gt;Content -->
<g id="edge50" class="edge"><title>User&#45;&gt;Content</title>
<path fill="none" stroke="#85e084" d="M816.679,-291.049C813.353,-300.598 808.374,-310.693 801,-318 789.758,-329.14 774.78,-337.011 760.047,-342.539"/>
<polygon fill="#85e084" stroke="#85e084" points="816.691,-291.01 823.887,-282.735 818.135,-286.223 819.579,-281.436 819.579,-281.436 819.579,-281.436 818.135,-286.223 815.27,-280.136 816.691,-291.01 816.691,-291.01"/>
<polygon fill="#85e084" stroke="#85e084" points="759.899,-342.59 748.979,-341.589 755.171,-344.217 750.443,-345.844 750.443,-345.844 750.443,-345.844 755.171,-344.217 751.907,-350.099 759.899,-342.59 759.899,-342.59"/>
<text text-anchor="middle" x="867" y="-305.4" font-family="Times Roman,serif" font-size="14.00">notify_contents</text>
</g>
<!-- Article&#45;&gt;Trackback -->
<g id="edge60" class="edge"><title>Article&#45;&gt;Trackback</title>
<path fill="none" stroke="#e8ddce" d="M661.381,-163.881C657.609,-159.495 653.975,-154.776 651,-150 631.406,-118.541 623.428,-76.0043 620.191,-48.0532"/>
<ellipse fill="none" stroke="#e8ddce" cx="664.264" cy="-167.07" rx="4.00002" ry="4.00002"/>
<polygon fill="#e8ddce" stroke="#e8ddce" points="620.155,-47.7013 623.613,-37.295 619.646,-42.7273 619.137,-37.7533 619.137,-37.7533 619.137,-37.7533 619.646,-42.7273 614.66,-38.2116 620.155,-47.7013 620.155,-47.7013"/>
</g>
<!-- Article&#45;&gt;Trackback -->
<g id="edge72" class="edge"><title>Article&#45;&gt;Trackback</title>
<path fill="none" stroke="#68b4bd" d="M638.04,-177.358C581.98,-164.783 493.343,-141.159 474,-114 464.203,-100.243 464.506,-89.9681 474,-76 491.788,-49.8277 523.657,-35.6727 552.9,-28.0172"/>
<ellipse fill="none" stroke="#68b4bd" cx="642.157" cy="-178.268" rx="4.00001" ry="4.00001"/>
<polygon fill="#68b4bd" stroke="#68b4bd" points="552.969,-28.0005 563.744,-30.0374 557.831,-26.8314 562.692,-25.6622 562.692,-25.6622 562.692,-25.6622 557.831,-26.8314 561.64,-21.2869 552.969,-28.0005 552.969,-28.0005"/>
<text text-anchor="middle" x="547.5" y="-91.4" font-family="Times Roman,serif" font-size="14.00">published_trackbacks</text>
</g>
<!-- Article&#45;&gt;Ping -->
<g id="edge58" class="edge"><title>Article&#45;&gt;Ping</title>
<path fill="none" stroke="#6453f7" d="M633.83,-185.05C541.512,-180.34 341.831,-164.673 182,-114 179.442,-113.189 176.833,-112.264 174.232,-111.27"/>
<ellipse fill="none" stroke="#6453f7" cx="637.896" cy="-185.25" rx="4" ry="4"/>
<polygon fill="#6453f7" stroke="#6453f7" points="174.186,-111.251 166.655,-103.281 169.563,-109.346 164.941,-107.441 164.941,-107.441 164.941,-107.441 169.563,-109.346 163.226,-111.602 174.186,-111.251 174.186,-111.251"/>
</g>
<!-- Article&#45;&gt;Comment -->
<g id="edge68" class="edge"><title>Article&#45;&gt;Comment</title>
<path fill="none" stroke="#007c79" d="M733.591,-178.9C764.896,-172.578 801.468,-162.733 811,-150 833.099,-120.479 824.444,-75.8989 815.097,-47.1168"/>
<ellipse fill="none" stroke="#007c79" cx="729.274" cy="-179.743" rx="4.00001" ry="4.00001"/>
<polygon fill="#007c79" stroke="#007c79" points="815.089,-47.0933 816.063,-36.1707 813.45,-42.3695 811.812,-37.6457 811.812,-37.6457 811.812,-37.6457 813.45,-42.3695 807.56,-39.1206 815.089,-47.0933 815.089,-47.0933"/>
</g>
<!-- Article&#45;&gt;Comment -->
<g id="edge70" class="edge"><title>Article&#45;&gt;Comment</title>
<path fill="none" stroke="#9a440f" d="M734.747,-180.762C771.852,-174.98 818.093,-164.988 830,-150 855.993,-117.281 845.3,-95.6143 832,-56 830.738,-52.2413 828.926,-48.5602 826.823,-45.0659"/>
<ellipse fill="none" stroke="#9a440f" cx="730.46" cy="-181.407" rx="4.00001" ry="4.00001"/>
<polygon fill="#9a440f" stroke="#9a440f" points="826.818,-45.0585 824.845,-34.2716 823.979,-40.9425 821.141,-36.8265 821.141,-36.8265 821.141,-36.8265 823.979,-40.9425 817.436,-39.3814 826.818,-45.0585 826.818,-45.0585"/>
<text text-anchor="middle" x="918" y="-91.4" font-family="Times Roman,serif" font-size="14.00">published_comments</text>
</g>
<!-- Article&#45;&gt;Categorization -->
<g id="edge66" class="edge"><title>Article&#45;&gt;Categorization</title>
<path fill="none" stroke="#78c086" d="M634.289,-182.681C582.222,-177.547 499.123,-167.404 429,-150 392.948,-141.052 353.521,-126.884 323.586,-115.169"/>
<ellipse fill="none" stroke="#78c086" cx="638.39" cy="-183.077" rx="4" ry="4"/>
<polygon fill="#78c086" stroke="#78c086" points="323.515,-115.14 315.872,-107.277 318.865,-113.301 314.216,-111.461 314.216,-111.461 314.216,-111.461 318.865,-113.301 312.56,-115.645 323.515,-115.14 323.515,-115.14"/>
</g>
<!-- Article&#45;&gt;Feedback -->
<g id="edge62" class="edge"><title>Article&#45;&gt;Feedback</title>
<path fill="none" stroke="#7528cf" d="M662.469,-163.117C656.132,-153.51 652.139,-142.291 657,-132 659.376,-126.97 662.808,-122.394 666.733,-118.308"/>
<ellipse fill="none" stroke="#7528cf" cx="665.025" cy="-166.574" rx="4.00002" ry="4.00002"/>
<polygon fill="#7528cf" stroke="#7528cf" points="666.819,-118.23 677.24,-114.817 670.514,-114.861 674.208,-111.492 674.208,-111.492 674.208,-111.492 670.514,-114.861 671.176,-108.167 666.819,-118.23 666.819,-118.23"/>
</g>
<!-- Article&#45;&gt;Feedback -->
<g id="edge74" class="edge"><title>Article&#45;&gt;Feedback</title>
<path fill="none" stroke="#3e5b96" d="M676.456,-160.342C674.755,-151.221 674.232,-141.042 677,-132 678.053,-128.56 679.546,-125.151 681.285,-121.876"/>
<ellipse fill="none" stroke="#3e5b96" cx="677.397" cy="-164.458" rx="4.00001" ry="4.00001"/>
<polygon fill="#3e5b96" stroke="#3e5b96" points="681.449,-121.607 690.511,-115.432 684.061,-117.344 686.674,-113.081 686.674,-113.081 686.674,-113.081 684.061,-117.344 682.837,-110.73 681.449,-121.607 681.449,-121.607"/>
<text text-anchor="middle" x="744" y="-137.4" font-family="Times Roman,serif" font-size="14.00">published_feedback</text>
</g>
<!-- Resource -->
<g id="node25" class="node"><title>Resource</title>
<ellipse fill="none" stroke="black" cx="1068" cy="-95" rx="55.8614" ry="18.3848"/>
<text text-anchor="middle" x="1068" y="-91.4" font-family="Times Roman,serif" font-size="14.00">Resource</text>
</g>
<!-- Article&#45;&gt;Resource -->
<g id="edge64" class="edge"><title>Article&#45;&gt;Resource</title>
<path fill="none" stroke="#99fe49" d="M732.551,-177.959C768.719,-170.893 819.652,-160.531 864,-150 923.999,-135.752 938.465,-130.077 998,-114 1003.39,-112.543 1009.02,-111.021 1014.64,-109.499"/>
<ellipse fill="none" stroke="#99fe49" cx="728.534" cy="-178.741" rx="4.00001" ry="4.00001"/>
<polygon fill="#99fe49" stroke="#99fe49" points="1015.04,-109.391 1025.87,-111.118 1019.86,-108.083 1024.69,-106.774 1024.69,-106.774 1024.69,-106.774 1019.86,-108.083 1023.51,-102.431 1015.04,-109.391 1015.04,-109.391"/>
</g>
<!-- Tag -->
<g id="node28" class="node"><title>Tag</title>
<ellipse fill="none" stroke="black" cx="1170" cy="-95" rx="27.7881" ry="18.3848"/>
<text text-anchor="middle" x="1170" y="-91.4" font-family="Times Roman,serif" font-size="14.00">Tag</text>
</g>
<!-- Article&#45;&gt;Tag -->
<g id="edge76" class="edge"><title>Article&#45;&gt;Tag</title>
<path fill="none" stroke="#e9ccde" d="M736.073,-179.598C845.512,-163.604 1095.75,-126.274 1133,-114 1135.26,-113.256 1137.54,-112.39 1139.82,-111.445"/>
<polygon fill="#e9ccde" stroke="#e9ccde" points="735.828,-179.634 725.283,-176.625 730.881,-180.356 725.933,-181.078 725.933,-181.078 725.933,-181.078 730.881,-180.356 726.583,-185.531 735.828,-179.634 735.828,-179.634"/>
<polygon fill="#e9ccde" stroke="#e9ccde" points="1139.89,-111.413 1150.85,-111.314 1144.43,-109.32 1148.97,-107.227 1148.97,-107.227 1148.97,-107.227 1144.43,-109.32 1147.09,-103.14 1139.89,-111.413 1139.89,-111.413"/>
</g>
<!-- Trigger -->
<g id="node31" class="node"><title>Trigger</title>
<ellipse fill="none" stroke="black" cx="1261" cy="-95" rx="44.7575" ry="18.3848"/>
<text text-anchor="middle" x="1261" y="-91.4" font-family="Times Roman,serif" font-size="14.00">Trigger</text>
</g>
<!-- Article&#45;&gt;Trigger -->
<g id="edge56" class="edge"><title>Article&#45;&gt;Trigger</title>
<path fill="none" stroke="#0ad1e3" d="M734.806,-181.611C817.884,-172.563 978.213,-154.835 1004,-150 1035.15,-144.16 1041.9,-138.121 1073,-132 1131.96,-120.394 1148.57,-128.046 1207,-114 1210.8,-113.085 1214.72,-112.003 1218.61,-110.825"/>
<ellipse fill="none" stroke="#0ad1e3" cx="730.748" cy="-182.052" rx="4.00001" ry="4.00001"/>
<polygon fill="#0ad1e3" stroke="#0ad1e3" points="1218.67,-110.805 1229.57,-112.028 1223.43,-109.275 1228.19,-107.744 1228.19,-107.744 1228.19,-107.744 1223.43,-109.275 1226.82,-103.46 1218.67,-110.805 1218.67,-110.805"/>
</g>
<!-- PageCache -->
<g id="node26" class="node"><title>PageCache</title>
<polygon fill="none" stroke="black" points="1785,-449 1693,-449 1693,-413 1785,-413 1785,-449"/>
<text text-anchor="middle" x="1739" y="-427.4" font-family="Times Roman,serif" font-size="14.00">PageCache</text>
</g>
<!-- BlogSweeper -->
<g id="node27" class="node"><title>BlogSweeper</title>
<polygon fill="none" stroke="black" points="2362,-449 2256,-449 2256,-413 2362,-413 2362,-449"/>
<text text-anchor="middle" x="2309" y="-427.4" font-family="Times Roman,serif" font-size="14.00">BlogSweeper</text>
</g>
<!-- Content&#45;&gt;Page -->
<g id="edge36" class="edge"><title>Content&#45;&gt;Page</title>
<path fill="none" stroke="black" d="M675.894,-339.849C665.036,-333.746 653.003,-326.206 643,-318 629.553,-306.969 616.565,-292.136 607.342,-280.654"/>
</g>
<!-- Content&#45;&gt;Feedback -->
<g id="edge38" class="edge"><title>Content&#45;&gt;Feedback</title>
<path fill="none" stroke="black" d="M693.614,-336.756C676.042,-309.654 644.709,-256.511 633,-206 625.357,-173.026 629.107,-157.814 651,-132 657.651,-124.158 666.294,-117.086 674.569,-111.277"/>
</g>
<!-- Content&#45;&gt;Redirection -->
<g id="edge94" class="edge"><title>Content&#45;&gt;Redirection</title>
<path fill="none" stroke="#3c83a7" d="M663.938,-338.248C624.076,-322.372 564.271,-298.554 522.662,-281.982"/>
<ellipse fill="none" stroke="#3c83a7" cx="667.701" cy="-339.747" rx="4.00001" ry="4.00001"/>
<polygon fill="#3c83a7" stroke="#3c83a7" points="522.578,-281.949 514.953,-274.068 517.933,-280.099 513.288,-278.249 513.288,-278.249 513.288,-278.249 517.933,-280.099 511.623,-282.429 522.578,-281.949 522.578,-281.949"/>
</g>
<!-- Content&#45;&gt;User -->
<g id="edge92" class="edge"><title>Content&#45;&gt;User</title>
<path fill="none" stroke="#d86c25" d="M703.28,-326.406C703.821,-317.12 706.084,-307.333 712,-300 720.974,-288.876 753.621,-278.802 781.204,-271.985"/>
<polygon fill="#d86c25" stroke="#d86c25" points="703.28,-326.518 698.797,-336.525 703.288,-331.518 703.297,-336.518 703.297,-336.518 703.297,-336.518 703.288,-331.518 707.797,-336.51 703.28,-326.518 703.28,-326.518"/>
<polygon fill="#d86c25" stroke="#d86c25" points="781.358,-271.948 792.13,-274.001 786.221,-270.786 791.084,-269.624 791.084,-269.624 791.084,-269.624 786.221,-270.786 790.039,-265.247 781.358,-271.948 781.358,-271.948"/>
<text text-anchor="middle" x="754.5" y="-305.4" font-family="Times Roman,serif" font-size="14.00">notify_users</text>
</g>
<!-- Content&#45;&gt;Article -->
<g id="edge78" class="edge"><title>Content&#45;&gt;Article</title>
<path fill="none" stroke="black" d="M703.41,-336.183C702.621,-330.357 701.761,-323.915 701,-318 695.855,-278.004 690.222,-231.085 687.204,-205.666"/>
</g>
<!-- Content&#45;&gt;Notification -->
<g id="edge90" class="edge"><title>Content&#45;&gt;Notification</title>
<path fill="none" stroke="#00109b" d="M765.222,-352.84C822.515,-349.422 903.719,-340.618 925,-318 950.406,-290.998 949.251,-245.67 944.986,-216.049"/>
<ellipse fill="none" stroke="#00109b" cx="760.946" cy="-353.082" rx="4" ry="4"/>
<polygon fill="#00109b" stroke="#00109b" points="944.941,-215.777 947.758,-205.179 944.129,-210.844 943.317,-205.91 943.317,-205.91 943.317,-205.91 944.129,-210.844 938.877,-206.641 944.941,-215.777 944.941,-215.777"/>
</g>
<!-- Content&#45;&gt;Trigger -->
<g id="edge96" class="edge"><title>Content&#45;&gt;Trigger</title>
<path fill="none" stroke="#8ab719" d="M763.487,-349.159C823.414,-342.529 912.979,-330.941 945,-318 1007.56,-292.718 1166.65,-169.691 1232.15,-117.974"/>
<ellipse fill="none" stroke="#8ab719" cx="759.213" cy="-349.627" rx="4" ry="4"/>
<polygon fill="#8ab719" stroke="#8ab719" points="1232.55,-117.659 1243.18,-114.983 1236.47,-114.557 1240.39,-111.454 1240.39,-111.454 1240.39,-111.454 1236.47,-114.557 1237.6,-107.925 1232.55,-117.659 1232.55,-117.659"/>
</g>
<!-- TextFilter -->
<g id="node30" class="node"><title>TextFilter</title>
<ellipse fill="none" stroke="black" cx="1176" cy="-431" rx="56.7776" ry="18.3848"/>
<text text-anchor="middle" x="1176" y="-427.4" font-family="Times Roman,serif" font-size="14.00">TextFilter</text>
</g>
<!-- Blog -->
<g id="node32" class="node"><title>Blog</title>
<ellipse fill="none" stroke="black" cx="1322" cy="-431" rx="33.234" ry="18.3848"/>
<text text-anchor="middle" x="1322" y="-427.4" font-family="Times Roman,serif" font-size="14.00">Blog</text>
</g>
<!-- ActiveRecord::Base -->
<g id="node34" class="node"><title>ActiveRecord::Base</title>
<ellipse fill="none" stroke="black" cx="680" cy="-535" rx="104.151" ry="18.3848"/>
<text text-anchor="middle" x="680" y="-531.4" font-family="Times Roman,serif" font-size="14.00">ActiveRecord::Base</text>
</g>
<!-- ActiveRecord::Base&#45;&gt;Right -->
<g id="edge4" class="edge"><title>ActiveRecord::Base&#45;&gt;Right</title>
<path fill="none" stroke="black" d="M646.418,-517.306C624.468,-506.69 594.811,-494.098 567,-488 462.953,-465.185 188.236,-506.045 88,-470 74.9939,-465.323 62.6219,-456.027 53.3212,-447.683"/>
</g>
<!-- ActiveRecord::Base&#45;&gt;Profile -->
<g id="edge6" class="edge"><title>ActiveRecord::Base&#45;&gt;Profile</title>
<path fill="none" stroke="black" d="M646.411,-517.337C624.458,-506.733 594.801,-494.143 567,-488 519.114,-477.419 167.76,-495.711 126,-470 107.905,-458.859 82.3193,-403.2 69.6799,-373.594"/>
</g>
<!-- ActiveRecord::Base&#45;&gt;Ping -->
<g id="edge10" class="edge"><title>ActiveRecord::Base&#45;&gt;Ping</title>
<path fill="none" stroke="black" d="M645.876,-517.285C623.957,-506.804 594.532,-494.367 567,-488 473.731,-466.432 140,-526.731 140,-431 140,-431 140,-431 140,-187 140,-161.604 140,-132.265 140,-113.678"/>
</g>
<!-- ActiveRecord::Base&#45;&gt;Sidebar -->
<g id="edge12" class="edge"><title>ActiveRecord::Base&#45;&gt;Sidebar</title>
<path fill="none" stroke="black" d="M645.872,-517.303C623.951,-506.829 594.526,-494.392 567,-488 441.643,-458.889 400.486,-509.486 278,-470 263.113,-465.201 248.219,-456.01 236.761,-447.756"/>
</g>
<!-- ActiveRecord::Base&#45;&gt;Redirect -->
<g id="edge22" class="edge"><title>ActiveRecord::Base&#45;&gt;Redirect</title>
<path fill="none" stroke="black" d="M680,-516.407C680,-497.594 680,-468.664 680,-449.783"/>
</g>
<!-- ActiveRecord::Base&#45;&gt;Categorization -->
<g id="edge24" class="edge"><title>ActiveRecord::Base&#45;&gt;Categorization</title>
<path fill="none" stroke="black" d="M642.348,-517.698C620.622,-508.131 592.611,-496.497 567,-488 501.317,-466.208 478.301,-480.129 416,-450 305.563,-396.591 251.264,-392.019 197,-282 167.202,-221.586 225.632,-146.917 256.966,-113.125"/>
</g>
<!-- ActiveRecord::Base&#45;&gt;Category -->
<g id="edge32" class="edge"><title>ActiveRecord::Base&#45;&gt;Category</title>
<path fill="none" stroke="black" d="M639.244,-517.933C617.771,-508.97 590.983,-497.835 567,-488 525.307,-470.903 511.306,-473.733 473,-450 391.654,-399.602 311.497,-317.122 278.154,-280.952"/>
</g>
<!-- ActiveRecord::Base&#45;&gt;PostType -->
<g id="edge40" class="edge"><title>ActiveRecord::Base&#45;&gt;PostType</title>
<path fill="none" stroke="black" d="M658.575,-516.885C635.724,-497.563 599.798,-467.187 577.363,-448.217"/>
</g>
<!-- ActiveRecord::Base&#45;&gt;Redirection -->
<g id="edge42" class="edge"><title>ActiveRecord::Base&#45;&gt;Redirection</title>
<path fill="none" stroke="black" d="M639.552,-517.731C586.233,-494.791 498.588,-456.403 494,-450 457.129,-398.539 465.229,-317.683 471.316,-281.537"/>
</g>
<!-- ActiveRecord::Base&#45;&gt;User -->
<g id="edge54" class="edge"><title>ActiveRecord::Base&#45;&gt;User</title>
<path fill="none" stroke="black" d="M714.296,-517.321C770.761,-486.018 881.387,-414.89 925,-318 938.791,-287.363 891.183,-273.292 856.413,-267.212"/>
</g>
<!-- ActiveRecord::Base&#45;&gt;Notification -->
<g id="edge80" class="edge"><title>ActiveRecord::Base&#45;&gt;Notification</title>
<path fill="none" stroke="black" d="M736.494,-519.349C827.387,-493.77 996,-444.5 996,-431 996,-431 996,-431 996,-263 996,-239.415 978.214,-218.465 962.513,-204.565"/>
</g>
<!-- ActiveRecord::Base&#45;&gt;Resource -->
<g id="edge82" class="edge"><title>ActiveRecord::Base&#45;&gt;Resource</title>
<path fill="none" stroke="black" d="M735.508,-519.338C768.457,-510.097 811.073,-498.243 849,-488 913.316,-470.63 931.415,-472.836 994,-450 1012.49,-443.254 1034,-450.681 1034,-431 1034,-431 1034,-431 1034,-187 1034,-160.096 1046.95,-131.357 1056.87,-113.296"/>
</g>
<!-- ActiveRecord::Base&#45;&gt;Tag -->
<g id="edge88" class="edge"><title>ActiveRecord::Base&#45;&gt;Tag</title>
<path fill="none" stroke="black" d="M732.98,-519.005C766.136,-509.309 809.844,-497.098 849,-488 891.284,-478.175 902.552,-479.088 945,-470 982.104,-462.057 999.308,-474.831 1028,-450 1134.91,-357.477 1162.22,-173.16 1168.38,-113.852"/>
</g>
<!-- ActiveRecord::Base&#45;&gt;Content -->
<g id="edge98" class="edge"><title>ActiveRecord::Base&#45;&gt;Content</title>
<path fill="none" stroke="black" d="M698.126,-516.632C712.613,-500.569 731.803,-475.825 740,-450 745.109,-433.902 744.487,-428.282 740,-412 736.081,-397.781 727.581,-383.531 720.061,-372.836"/>
</g>
<!-- ActiveRecord::Base&#45;&gt;TextFilter -->
<g id="edge100" class="edge"><title>ActiveRecord::Base&#45;&gt;TextFilter</title>
<path fill="none" stroke="black" d="M728.95,-518.569C762.375,-508.05 807.885,-495.088 849,-488 961.4,-468.622 995.582,-502.205 1105,-470 1121.46,-465.155 1138.36,-456.071 1151.53,-447.888"/>
</g>
<!-- ActiveRecord::Base&#45;&gt;Trigger -->
<g id="edge102" class="edge"><title>ActiveRecord::Base&#45;&gt;Trigger</title>
<path fill="none" stroke="black" d="M728.575,-518.627C762.029,-508.062 807.719,-495.024 849,-488 968.874,-467.602 1001.21,-484.012 1122,-470 1185.74,-462.606 1261,-495.163 1261,-431 1261,-431 1261,-431 1261,-187 1261,-161.604 1261,-132.265 1261,-113.678"/>
</g>
<!-- ActiveRecord::Base&#45;&gt;Blog -->
<g id="edge104" class="edge"><title>ActiveRecord::Base&#45;&gt;Blog</title>
<path fill="none" stroke="black" d="M727.796,-518.546C761.29,-507.801 807.339,-494.584 849,-488 942.59,-473.209 1186.57,-504.037 1275,-470 1287.27,-465.277 1298.68,-455.979 1307.19,-447.647"/>
</g>
<!-- ActiveRecord::Observer -->
<g id="node41" class="node"><title>ActiveRecord::Observer</title>
<ellipse fill="none" stroke="black" cx="1439" cy="-535" rx="125.865" ry="18.3848"/>
<text text-anchor="middle" x="1439" y="-531.4" font-family="Times Roman,serif" font-size="14.00">ActiveRecord::Observer</text>
</g>
<!-- ActiveRecord::Observer&#45;&gt;WebNotifier -->
<g id="edge16" class="edge"><title>ActiveRecord::Observer&#45;&gt;WebNotifier</title>
<path fill="none" stroke="black" d="M1435.96,-516.407C1432.85,-497.36 1428.04,-467.943 1424.96,-449.084"/>
</g>
<!-- ActiveRecord::Observer&#45;&gt;EmailNotifier -->
<g id="edge46" class="edge"><title>ActiveRecord::Observer&#45;&gt;EmailNotifier</title>
<path fill="none" stroke="black" d="M1457.24,-516.407C1475.92,-497.36 1504.77,-467.943 1523.26,-449.084"/>
</g>
<!-- Object -->
<g id="node51" class="node"><title>Object</title>
<ellipse fill="none" stroke="black" cx="1675" cy="-535" rx="43.1335" ry="18.3848"/>
<text text-anchor="middle" x="1675" y="-531.4" font-family="Times Roman,serif" font-size="14.00">Object</text>
</g>
<!-- Object&#45;&gt;Theme -->
<g id="edge34" class="edge"><title>Object&#45;&gt;Theme</title>
<path fill="none" stroke="black" d="M1669.28,-516.407C1663.42,-497.36 1654.37,-467.943 1648.56,-449.084"/>
</g>
<!-- Object&#45;&gt;PageCache -->
<g id="edge84" class="edge"><title>Object&#45;&gt;PageCache</title>
<path fill="none" stroke="black" d="M1686.15,-516.885C1697.82,-497.912 1716.06,-468.282 1727.77,-449.257"/>
</g>
<!-- ActionMailer::Base -->
<g id="node57" class="node"><title>ActionMailer::Base</title>
<ellipse fill="none" stroke="black" cx="1871" cy="-535" rx="101.823" ry="18.3848"/>
<text text-anchor="middle" x="1871" y="-531.4" font-family="Times Roman,serif" font-size="14.00">ActionMailer::Base</text>
</g>
<!-- ActionMailer::Base&#45;&gt;NotificationMailer -->
<g id="edge44" class="edge"><title>ActionMailer::Base&#45;&gt;NotificationMailer</title>
<path fill="none" stroke="black" d="M1871,-516.407C1871,-497.36 1871,-467.943 1871,-449.084"/>
</g>
<!-- ActionController::Caching::Sweeper -->
<g id="node79" class="node"><title>ActionController::Caching::Sweeper</title>
<ellipse fill="none" stroke="black" cx="2309" cy="-535" rx="185.969" ry="18.3848"/>
<text text-anchor="middle" x="2309" y="-531.4" font-family="Times Roman,serif" font-size="14.00">ActionController::Caching::Sweeper</text>
</g>
<!-- ActionController::Caching::Sweeper&#45;&gt;BlogSweeper -->
<g id="edge86" class="edge"><title>ActionController::Caching::Sweeper&#45;&gt;BlogSweeper</title>
<path fill="none" stroke="black" d="M2309,-516.407C2309,-497.36 2309,-467.943 2309,-449.084"/>
</g>
</g>
</svg>
